<svg width="16" height="19" viewBox="0 0 16 19" fill="none" xmlns="http://www.w3.org/2000/svg">
<path d="M14.6317 6.3292C14.0247 6.70065 13.5219 7.22003 13.1704 7.83874C12.8189 8.45745 12.6301 9.15525 12.6217 9.8668C12.6241 10.6676 12.8614 11.4501 13.3041 12.1174C13.7468 12.7847 14.3756 13.3075 15.1125 13.621C14.822 14.5584 14.392 15.4467 13.837 16.2561C13.0429 17.3992 12.2126 18.5423 10.9492 18.5423C9.6858 18.5423 9.3609 17.8083 7.9049 17.8083C6.4849 17.8083 5.9797 18.5664 4.8249 18.5664C3.6701 18.5664 2.8638 17.5075 1.9373 16.208C0.713333 14.3875 0.0406601 12.2526 0 10.0593C0 6.4493 2.3464 4.5363 4.6566 4.5363C5.884 4.5363 6.9066 5.3425 7.6766 5.3425C8.4106 5.3425 9.5537 4.4882 10.9495 4.4882C11.6672 4.46962 12.3784 4.62783 13.0205 4.94887C13.6626 5.26991 14.2159 5.74394 14.6317 6.3292ZM7.7731 4.2836C7.68831 4.28334 7.60372 4.27531 7.5204 4.2596C7.49687 4.1488 7.48477 4.03587 7.4843 3.9226C7.52446 2.99134 7.88587 2.10273 8.5071 1.4078C9.20435 0.606905 10.1816 0.103193 11.2385 0C11.2636 0.122718 11.2757 0.247743 11.2746 0.373C11.2516 1.32288 10.9033 2.2361 10.2879 2.96C9.98032 3.33955 9.59878 3.65261 9.16647 3.88014C8.73416 4.10768 8.2601 4.24495 7.7731 4.2836Z" fill="white" fill-opacity="0.8"/>
</svg>
