<svg width="17" height="17" viewBox="0 0 17 17" fill="none" xmlns="http://www.w3.org/2000/svg">
<path d="M15.7816 14.4911L11.6061 10.409C12.6029 9.10914 13.0697 7.47955 12.9122 5.84901C12.7548 4.21847 11.9847 2.70833 10.7575 1.62325C9.53032 0.53816 7.93725 -0.0411189 6.29969 0.00227283C4.66214 0.0456646 3.10199 0.708496 1.93396 1.85705C0.765937 3.00561 0.076978 4.5544 0.00607032 6.191C-0.0648374 7.82759 0.487584 9.43017 1.55189 10.6754C2.6162 11.9207 4.11318 12.716 5.74084 12.9009C7.36851 13.0857 9.00571 12.6464 10.3222 11.6715L14.5227 15.7781C14.6072 15.8608 14.7071 15.926 14.8168 15.97C14.9265 16.014 15.0438 16.036 15.162 16.0347C15.2802 16.0334 15.397 16.0088 15.5057 15.9624C15.6144 15.9159 15.7129 15.8485 15.7956 15.764C15.8782 15.6795 15.9434 15.5796 15.9874 15.4699C16.0315 15.3602 16.0535 15.2429 16.0521 15.1247C16.0508 15.0065 16.0263 14.8897 15.9798 14.781C15.9334 14.6723 15.8661 14.5738 15.7816 14.4911ZM1.25217 6.48943C1.2536 5.45227 1.56245 4.43882 2.1397 3.57715C2.71694 2.71548 3.53668 2.04427 4.49529 1.64835C5.4539 1.25244 6.50837 1.14959 7.52542 1.3528C8.54248 1.55601 9.47646 2.05616 10.2093 2.79004C10.9422 3.52393 11.4411 4.4586 11.6429 5.47593C11.8447 6.49326 11.7404 7.54758 11.3432 8.50565C10.946 9.46372 10.2736 10.2825 9.41117 10.8586C8.5487 11.4347 7.53483 11.7421 6.49767 11.7421C5.106 11.7396 3.77214 11.1852 2.78875 10.2005C1.80536 9.21572 1.25275 7.8811 1.25217 6.48943Z" fill="white" fill-opacity="0.8"/>
</svg>
