<svg width="16" height="18" viewBox="0 0 16 18" fill="none" xmlns="http://www.w3.org/2000/svg">
<path d="M12.515 3.47639H11.3797C11.2894 2.52524 10.8476 1.64194 10.1408 0.999087C9.43403 0.35623 8.51293 0 7.5575 0C6.60207 0 5.68097 0.35623 4.97417 0.999087C4.26736 1.64194 3.82564 2.52524 3.7353 3.47639H2.6C1.9107 3.47723 1.24987 3.75143 0.762458 4.23884C0.275046 4.72625 0.00084681 5.38708 0 6.07639V14.9996C0.00084681 15.6889 0.275046 16.3497 0.762458 16.8371C1.24987 17.3245 1.9107 17.5987 2.6 17.5996H12.515C13.2043 17.5987 13.8651 17.3245 14.3525 16.8371C14.84 16.3497 15.1142 15.6889 15.115 14.9996V6.07648C15.1142 5.38716 14.84 4.72631 14.3526 4.23888C13.8652 3.75145 13.2043 3.47723 12.515 3.47639ZM7.5575 1.19958C8.19489 1.20159 8.81033 1.43258 9.29165 1.85043C9.77296 2.26829 10.0881 2.8452 10.1796 3.47598H4.9354C5.02691 2.8452 5.34204 2.26829 5.82335 1.85043C6.30467 1.43258 6.92011 1.20159 7.5575 1.19958ZM13.9149 14.9996C13.9145 15.3708 13.7669 15.7267 13.5044 15.9891C13.242 16.2516 12.8861 16.3992 12.5149 16.3996H2.6C2.22881 16.3992 1.87293 16.2516 1.61046 15.9891C1.34799 15.7267 1.20037 15.3708 1.2 14.9996V6.07648C1.20037 5.7053 1.34799 5.34942 1.61046 5.08694C1.87293 4.82447 2.22881 4.67686 2.6 4.67649H12.515C12.8862 4.67686 13.2421 4.82447 13.5045 5.08694C13.767 5.34942 13.9146 5.7053 13.915 6.07648L13.9149 14.9996Z" fill="white" fill-opacity="0.8"/>
</svg>
